# xmcd
#
# Track frame offsets:
#	150
#	15630
#	28904
#	43550
#	59204
#	74188
#	88726
#	102133
#	114120
#	125045
#	135034
#	148147
#	162593
#	177791
#	192630
#	207632
#	220550
#	233828
#	245260
#	260709
#
# Disc length: 3674 seconds
#
# Revision: 1
# Processed by: cddbd v1.5.2PL0 Copyright (c) Steve Scherf et al.
# Submitted via: audiograbber 1.83.01
#
DISCID=330e5814
DTITLE=Various Artist - Hit Club The Hits 1950
DYEAR=1950
DGENRE=Swing
TTITLE0=Gordon Jenkins And The Weavers - Goodnight Irene
TTITLE1=Gary And Bing Crosby - Play A Simple Simple Melody
TTITLE2=Doris Day - Tea For Two
TTITLE3=Nat King Cole - Mona Lisa
TTITLE4=The Andrew Sisters - I Wanna B Loved
TTITLE5=Billie Holiday - God Bless The Child
TTITLE6=Perry Como And The Fontane Sisters - Hoop Dee Doo
TTITLE7=Tennessee Ernie Ford And Kay Starr -  I'll Never Be Free
TTITLE8=Fats Domino - Careless Love
TTITLE9=Anton Caras - Third Man Theme
TTITLE10=Frankie Laine - The Cry Of The Wild Goose
TTITLE11=Louis Armstrong And Louis Jordan With His Tympany Five - You Rascal Yo
TTITLE11=u
TTITLE12=Teresa Brewer - Music Music Music
TTITLE13=Tony Martin - There´s No Tomorrow (O Sole Mio)
TTITLE14=Patty Page - All My Love
TTITLE15=The Mills Brother - Neverthless
TTITLE16=Gary And Bing Crosby - Sam's Song
TTITLE17=Kay Starr - Bonaparte's Retreat
TTITLE18=Sammy Kaye - Harbor Lights
TTITLE19=The Ames Brothers - Sentimental Me
EXTD=
EXTT0=
EXTT1=
EXTT2=
EXTT3=
EXTT4=
EXTT5=
EXTT6=
EXTT7=
EXTT8=
EXTT9=
EXTT10=
EXTT11=
EXTT12=
EXTT13=
EXTT14=
EXTT15=
EXTT16=
EXTT17=
EXTT18=
EXTT19=
PLAYORDER=
